<?xml version="1.0" encoding="UTF-8"?>
<svg version="1.1" viewBox="0 0 300 113" xmlns="http://www.w3.org/2000/svg" width="150" height="50">
<path d="M0 0 C89.76 0 179.52 0 272 0 C272 37.29 272 74.58 272 113 C182.24 113 92.48 113 0 113 C0 75.71 0 38.42 0 0 Z " fill="#242424" transform="translate(0,0)"/>
<path d="M0 0 C4.62 -0.0825 9.24 -0.165 14 -0.25 C16.16175781 -0.30462402 16.16175781 -0.30462402 18.3671875 -0.36035156 C26.47697056 -0.43034134 32.34807514 -0.10643129 38.640625 5.44824219 C40.80999015 7.92462238 41.01335385 10.14422162 41.3125 13.375 C40.94339282 17.65664327 40.09138492 19.07571696 37 22 C34.25 23.3125 34.25 23.3125 32 24 C32.54269531 24.23074219 33.08539063 24.46148437 33.64453125 24.69921875 C36.99477535 26.22644714 39.53142069 27.47284828 42 30.25 C43.33151198 33.91165794 43.66531784 37.18750451 43 41 C40.58026566 45.93253538 38.09097002 48.0259504 33 50 C29.07972665 50.97765256 25.42040913 51.11607493 21.38671875 51.09765625 C19.70002075 51.09390991 19.70002075 51.09390991 17.97924805 51.09008789 C16.56297119 51.08098389 15.14669434 51.07187988 13.6875 51.0625 C9.170625 51.041875 4.65375 51.02125 0 51 C0 34.17 0 17.34 0 0 Z " fill="#4968F4" transform="translate(17,27)"/>
<path d="M0 0 C2.9375 2.625 2.9375 2.625 5 5 C5.495 5.495 5.495 5.495 6 6 C6.08783542 8.21855264 6.10694609 10.43988496 6.09765625 12.66015625 C6.0962413 13.32462265 6.09482635 13.98908905 6.09336853 14.6736908 C6.08775518 16.80333899 6.07520054 18.93288339 6.0625 21.0625 C6.05748671 22.50325369 6.05292351 23.94400903 6.04882812 25.38476562 C6.03778145 28.92321102 6.02050792 32.46159539 6 36 C2.37 36 -1.26 36 -5 36 C-5.33 34.68 -5.66 33.36 -6 32 C-6.391875 32.45375 -6.78375 32.9075 -7.1875 33.375 C-10.34453571 36.20544581 -13.18502818 36.92453965 -17.375 37.3125 C-23.0321117 36.82481796 -26.67883191 35.52442472 -30.4375 31.1875 C-32.18843615 27.61559025 -32.73261095 25.9072584 -32 22 C-29.00194701 17.06771927 -26.13502828 15.10570913 -20.625 13.5234375 C-15.79104873 12.5595246 -10.91634954 12.24124219 -6 12 C-6.34444881 9.52733235 -6.34444881 9.52733235 -7 7 C-10.04983996 5.47508002 -12.6423369 5.76437452 -16 6 C-16.45117188 6.49628906 -16.90234375 6.99257813 -17.3671875 7.50390625 C-19.74141136 9.67933146 -21.53539323 9.29875083 -24.6875 9.1875 C-25.68136719 9.16042969 -26.67523438 9.13335937 -27.69921875 9.10546875 C-28.45847656 9.07066406 -29.21773437 9.03585938 -30 9 C-28.91873578 3.83395985 -27.03384091 1.82699745 -22.8515625 -1.01953125 C-15.794713 -4.75638615 -6.81827192 -3.78792885 0 0 Z " fill="#4867F2" transform="translate(249,42)"/>
<path d="M0 0 C2.92157211 2.33725769 3.81576138 3.44728413 5 7 C5.08358958 9.21089945 5.10731764 11.42426078 5.09765625 13.63671875 C5.09443359 14.93544922 5.09121094 16.23417969 5.08789062 17.57226562 C5.07953531 18.94401108 5.07107037 20.31575587 5.0625 21.6875 C5.05748335 23.07096195 5.05292073 24.45442563 5.04882812 25.83789062 C5.03702529 29.22530395 5.02056019 32.61263033 5 36 C1.37 36 -2.26 36 -6 36 C-6.33 34.68 -6.66 33.36 -7 32 C-7.763125 32.639375 -8.52625 33.27875 -9.3125 33.9375 C-13.61784064 37.24159863 -17.71774123 37.56023957 -23 37 C-27.24837316 35.39684032 -29.61266515 33.84019863 -32 30 C-32.50390625 27.59765625 -32.50390625 27.59765625 -32.5625 25.0625 C-32.60503906 24.22847656 -32.64757812 23.39445312 -32.69140625 22.53515625 C-31.85693473 19.47542735 -30.44952155 17.95357326 -27.9362793 16.05102539 C-24.23581217 14.04238701 -20.25675064 13.67596751 -16.125 13.1875 C-15.24585937 13.06697266 -14.36671875 12.94644531 -13.4609375 12.82226562 C-11.3096863 12.52997606 -9.15509484 12.26245214 -7 12 C-7.34444881 9.52733235 -7.34444881 9.52733235 -8 7 C-11.04983996 5.47508002 -13.6423369 5.76437452 -17 6 C-17.45117188 6.49628906 -17.90234375 6.99257813 -18.3671875 7.50390625 C-20.74141136 9.67933146 -22.53539323 9.29875083 -25.6875 9.1875 C-26.68136719 9.16042969 -27.67523438 9.13335937 -28.69921875 9.10546875 C-29.45847656 9.07066406 -30.21773438 9.03585938 -31 9 C-29.91873578 3.83395985 -28.03384091 1.82699745 -23.8515625 -1.01953125 C-16.43280777 -4.94802795 -7.30021804 -3.45260813 0 0 Z " fill="#4968F3" transform="translate(98,42)"/>
<path d="M0 0 C3.41151055 1.79049042 5.42191895 4.12032406 7.5625 7.3125 C8.01660156 10.6340332 8.01660156 10.6340332 7.953125 14.36328125 C7.94746521 15.02208786 7.94180542 15.68089447 7.93597412 16.35966492 C7.91371239 18.44887216 7.8635433 20.53631773 7.8125 22.625 C7.79242144 24.04750114 7.77417304 25.47002937 7.7578125 26.89257812 C7.71388359 30.3664508 7.64493096 33.83930325 7.5625 37.3125 C3.9325 37.3125 0.3025 37.3125 -3.4375 37.3125 C-3.7675 36.3225 -4.0975 35.3325 -4.4375 34.3125 C-5.406875 34.9725 -6.37625 35.6325 -7.375 36.3125 C-11.71852374 38.76944272 -15.54186631 39.17592746 -20.4375 38.3125 C-23.83075209 37.05049353 -26.54239915 35.402188 -28.875 32.5625 C-29.74725469 29.07348122 -30.09834461 25.84169144 -29.4375 22.3125 C-25.93311536 17.22549004 -21.24879378 15.61503136 -15.4375 14.3125 C-12.10894981 13.83500603 -8.79344269 13.51567816 -5.4375 13.3125 C-4.7560177 11.42070797 -4.7560177 11.42070797 -4.4375 9.3125 C-6.36755229 6.95651371 -6.36755229 6.95651371 -9.8125 7 C-13.36521206 6.97005494 -13.36521206 6.97005494 -15.3359375 8.8203125 C-17.97778017 10.69611901 -19.48850419 10.62627615 -22.6875 10.5 C-23.57953125 10.47292969 -24.4715625 10.44585937 -25.390625 10.41796875 C-26.06609375 10.38316406 -26.7415625 10.34835938 -27.4375 10.3125 C-27.21837133 6.47774836 -26.49721606 5.37085887 -23.6875 2.625 C-16.56412807 -2.44355311 -8.12397783 -3.75772008 0 0 Z " fill="#4968F4" transform="translate(139.4375,40.6875)"/>
<path d="M0 0 C3.63 0 7.26 0 11 0 C11 2.97 11 5.94 11 9 C13.64 9 16.28 9 19 9 C19 11.64 19 14.28 19 17 C16.36 17 13.72 17 11 17 C11.33 23.93 11.66 30.86 12 38 C13.98 38.33 15.96 38.66 18 39 C19.35439668 41.70879335 19.06501451 44.00933268 19 47 C16.91695462 47.05418326 14.83350232 47.09287551 12.75 47.125 C11.58984375 47.14820313 10.4296875 47.17140625 9.234375 47.1953125 C6.06972027 47.00421016 4.5204697 46.86247097 2 45 C-0.58737126 41.36514214 -1.36740527 38.92184801 -1.29296875 34.48046875 C-1.28330078 33.45888672 -1.27363281 32.43730469 -1.26367188 31.38476562 C-1.23853516 30.32966797 -1.21339844 29.27457031 -1.1875 28.1875 C-1.17396484 27.11306641 -1.16042969 26.03863281 -1.14648438 24.93164062 C-1.11122577 22.28724545 -1.06194366 19.64388252 -1 17 C-2.65 17 -4.3 17 -6 17 C-6 14.36 -6 11.72 -6 9 C-4.02 9 -2.04 9 0 9 C0 6.03 0 3.06 0 0 Z " fill="#4968F4" transform="translate(193,31)"/>
<path d="M0 0 C1 1 1 1 1.09765625 3.06640625 C1.08605469 3.89011719 1.07445312 4.71382812 1.0625 5.5625 C1.05347656 6.38878906 1.04445312 7.21507812 1.03515625 8.06640625 C1.02355469 8.70449219 1.01195312 9.34257813 1 10 C-0.03060547 10.05607422 -0.03060547 10.05607422 -1.08203125 10.11328125 C-1.98308594 10.17902344 -2.88414062 10.24476562 -3.8125 10.3125 C-4.70582031 10.37050781 -5.59914062 10.42851563 -6.51953125 10.48828125 C-9.45714182 11.094308 -10.21190217 11.62601479 -12 14 C-12.50545868 16.70484875 -12.50545868 16.70484875 -12.51171875 19.76171875 C-12.54716797 20.87998047 -12.58261719 21.99824219 -12.61914062 23.15039062 C-12.65297852 24.90125977 -12.65297852 24.90125977 -12.6875 26.6875 C-12.72166016 27.86634766 -12.75582031 29.04519531 -12.79101562 30.25976562 C-12.87357239 33.17284019 -12.93846013 36.08640568 -13 39 C-16.96 39 -20.92 39 -25 39 C-25 26.46 -25 13.92 -25 1 C-21.04 1 -17.08 1 -13 1 C-12.67 1.99 -12.34 2.98 -12 4 C-10.700625 3.01 -10.700625 3.01 -9.375 2 C-5.78027189 -0.13020925 -4.0834708 -0.47482219 0 0 Z " fill="#4766EE" transform="translate(181,39)"/>
<path d="M0 0 C2.22808159 -0.10853983 4.45769932 -0.18583307 6.6875 -0.25 C7.92886719 -0.29640625 9.17023437 -0.3428125 10.44921875 -0.390625 C14.57143129 0.06286373 16.13914523 1.05863337 19 4 C19.625 6.5 19.625 6.5 19 9 C16.13914523 11.94136663 14.57143129 12.93713627 10.44921875 13.390625 C9.20785156 13.34421875 7.96648438 13.2978125 6.6875 13.25 C5.43324219 13.21390625 4.17898437 13.1778125 2.88671875 13.140625 C1.93410156 13.09421875 0.98148438 13.0478125 0 13 C0 8.71 0 4.42 0 0 Z " fill="#242424" transform="translate(29,56)"/>
<path d="M0 0 C2.08268593 -0.08126087 4.16628658 -0.13930839 6.25 -0.1875 C7.99023438 -0.23970703 7.99023438 -0.23970703 9.765625 -0.29296875 C13.22268407 0.02017066 14.51565563 0.65709108 17 3 C16.6875 6.375 16.6875 6.375 16 10 C12.36804504 12.42130331 10.61650652 12.21022785 6.3125 12.125 C5.13300781 12.10695313 3.95351563 12.08890625 2.73828125 12.0703125 C1.83464844 12.04710937 0.93101563 12.02390625 0 12 C0 8.04 0 4.08 0 0 Z " fill="#242424" transform="translate(29,36)"/>
<path d="M0 0 C0.31068741 3.41756151 0.3625104 5.40106977 -1.4375 8.375 C-5.07724519 10.6831311 -8.78847779 10.90246905 -13 10 C-15 7 -15 7 -14.8125 4.9375 C-14 3 -14 3 -11 1 C-7.29652815 -0.00093834 -3.82369899 -0.08892323 0 0 Z " fill="#242424" transform="translate(243,61)"/>
<path d="M0 0 C0.3125 2.75 0.3125 2.75 0 6 C-2.1360126 8.53651497 -3.71857948 9.80398921 -7.04296875 10.3125 C-9.1875 10.375 -9.1875 10.375 -13 10 C-13.66 9.34 -14.32 8.68 -15 8 C-14.8125 5.5 -14.8125 5.5 -14 3 C-9.55212087 0.03474725 -5.26601605 0 0 0 Z " fill="#242424" transform="translate(136,61)"/>
<path d="M0 0 C0.31424507 3.45669582 0.37956836 5.39901677 -1.5 8.375 C-5.201708 10.7811102 -7.62688032 10.42320513 -12 10 C-14 8 -14 8 -14.3125 5.5 C-14.209375 4.675 -14.10625 3.85 -14 3 C-9.55212087 0.03474725 -5.26601605 0 0 0 Z " fill="#242424" transform="translate(91,61)"/>
</svg>
